name C:\Users\u0101727\Documents\MyRepositories\paper-ad\predictivesimulations_2d/Results/PredSim_2D/IK_c27.mot
datacolumns 11
datarows 51
range 1.52152990 2.09353363
endheader
time	pelvis_tilt	pelvis_tx	pelvis_ty	hip_flexion_l	hip_flexion_r	knee_angle_l	knee_angle_r	ankle_angle_l	ankle_angle_r	lumbar_extension	
          1.52152990	        -18.37860265	          2.02572893	          0.90983209	         32.80398209	         14.37810174	        -30.99168159	        -13.44545442	         13.03871671	          4.85498088	          9.23884804	
          1.53296998	        -18.42416893	          2.03880482	          0.90729690	         33.93623684	         13.20427703	        -29.33044280	        -12.73886231	         13.75482529	          4.58170061	          9.11870095	
          1.54441005	        -18.48034187	          2.05196797	          0.90499489	         35.01769621	         12.03942985	        -27.59327271	        -12.02211809	         14.36016533	          4.19175171	          9.00073874	
          1.55585013	        -18.54763950	          2.06529012	          0.90309981	         36.03997387	         10.86199205	        -25.80083685	        -11.27231215	         14.86592223	          3.73380768	          8.89142249	
          1.56729020	        -18.62464825	          2.07883726	          0.90163507	         36.99205575	          9.65673516	        -23.98482641	        -10.49557305	         15.28079470	          3.30266109	          8.79635361	
          1.57873028	        -18.70843681	          2.09263531	          0.90044890	         37.86631286	          8.43327614	        -22.18309435	         -9.66478250	         15.61305967	          2.78396418	          8.71752594	
          1.59017035	        -18.79276170	          2.10684467	          0.89940199	         38.64011752	          7.07804061	        -20.43857531	         -9.06455673	         15.86653210	          2.56349751	          8.67222291	
          1.60161042	        -18.86873524	          2.12127529	          0.89800495	         39.34617983	          5.77133392	        -18.74096118	         -8.66004209	         16.05163470	          2.69583557	          8.63731065	
          1.61305050	        -18.93505482	          2.13585212	          0.89593833	         40.00456894	          4.55086615	        -17.07508556	         -8.44890690	         16.17863614	          2.94134044	          8.60547360	
          1.62449057	        -18.99369512	          2.15055938	          0.89321805	         40.62366949	          3.43413358	        -15.48582136	         -8.46592318	         16.25593218	          2.98769572	          8.57330635	
          1.63593065	        -19.04774832	          2.16534789	          0.89005250	         41.21177680	          2.53324013	        -14.01326720	         -8.45309725	         16.29159925	          2.45159101	          8.53088280	
          1.64737072	        -19.09814140	          2.18051422	          0.88691929	         41.73827168	          1.67732446	        -12.71300212	         -8.51892109	         16.28116109	          1.64460668	          8.50524552	
          1.65881080	        -19.14165850	          2.19615249	          0.88400080	         42.20277656	          0.86116869	        -11.62088089	         -8.69257279	         16.22055281	          0.68601337	          8.50080323	
          1.67025087	        -19.17505723	          2.21234138	          0.88134021	         42.59817825	          0.06393647	        -10.76164021	         -8.97780029	         16.10402016	         -0.32848759	          8.52374799	
          1.68169095	        -19.19513355	          2.22909011	          0.87883871	         42.92297502	         -0.70386180	        -10.14480130	         -9.36890253	         15.92565081	         -1.41128142	          8.57556568	
          1.69313102	        -19.19523859	          2.24646827	          0.87632451	         43.17856957	         -1.50306439	         -9.79786323	        -10.13118127	         15.67777886	         -2.53787523	          8.66557571	
          1.70457109	        -19.17124657	          2.26420384	          0.87345450	         43.40408864	         -2.13854007	         -9.73705148	        -11.23341078	         15.35732586	         -3.90745765	          8.76513561	
          1.71601117	        -19.12388873	          2.28229485	          0.87032355	         43.57607979	         -2.52871835	        -10.02870341	        -12.43725114	         14.95757689	         -5.65775619	          8.87280491	
          1.72745124	        -19.04976737	          2.30106089	          0.86725696	         43.63301077	         -2.83077359	        -10.79606448	        -13.85971986	         14.46475308	         -7.66593695	          9.01959472	
          1.73889132	        -18.95470834	          2.32045585	          0.86435129	         43.44916862	         -3.00572418	        -12.21299748	        -15.50557063	         13.87433463	        -10.04483943	          9.20941405	
          1.75033139	        -18.85918026	          2.34004959	          0.86205779	         43.11343665	         -3.04319108	        -14.05229995	        -17.30409257	         13.23649000	        -12.66003112	          9.41797309	
          1.76177147	        -18.79259000	          2.35906588	          0.86100452	         42.83551141	         -2.91386325	        -15.87658479	        -19.13877391	         12.62083253	        -15.05531958	          9.59383521	
          1.77321154	        -18.77064528	          2.37710449	          0.86143531	         42.58710830	         -2.57980740	        -17.56142408	        -20.86870599	         12.06892700	        -16.98440268	          9.71729427	
          1.78465162	        -18.78165700	          2.39431766	          0.86303293	         42.29968393	         -2.06147321	        -19.02964250	        -22.45936524	         11.61181927	        -18.46665974	          9.80121767	
          1.79609169	        -18.80553956	          2.41104229	          0.86527526	         41.91305729	         -1.40744479	        -20.25361548	        -23.98918003	         11.25459010	        -19.53138904	          9.86734292	
          1.80753176	        -18.82939486	          2.42749153	          0.86776255	         41.40115631	         -0.64425591	        -21.23506678	        -25.50929174	         10.98387648	        -20.20521117	          9.92726906	
          1.81897184	        -18.84736707	          2.44376665	          0.87028459	         40.76367665	          0.21363292	        -21.99447852	        -27.03054022	         10.77654656	        -20.51609626	          9.98530354	
          1.83041191	        -18.85642678	          2.45991427	          0.87274302	         40.01116457	          1.15982261	        -22.55716262	        -28.54574859	         10.60923359	        -20.48920549	         10.04216313	
          1.84185199	        -18.85505016	          2.47596080	          0.87509036	         39.15469818	          2.18722411	        -22.94249488	        -30.04479831	         10.45735724	        -20.15115663	         10.09808795	
          1.85329206	        -18.84320137	          2.49191053	          0.87732829	         38.20784029	          3.28751116	        -23.16935422	        -31.51686804	         10.29019281	        -19.52811584	         10.15264956	
          1.86473214	        -18.82205500	          2.50773871	          0.87952025	         37.18574472	          4.45894255	        -23.25264796	        -32.94202713	         10.07735824	        -18.64575367	         10.20367435	
          1.87617221	        -18.79340824	          2.52341266	          0.88174961	         36.09929129	          5.69897374	        -23.19963449	        -34.30042885	          9.79127482	        -17.52963769	         10.24911217	
          1.88761229	        -18.75882240	          2.53890491	          0.88408568	         34.95691288	          7.00344434	        -23.01520918	        -35.57453859	          9.40718301	        -16.20566848	         10.28750211	
          1.89905236	        -18.71947478	          2.55419382	          0.88657449	         33.76840296	          8.36747158	        -22.70933565	        -36.74738020	          8.90871483	        -14.70020271	         10.31764146	
          1.91049243	        -18.67628773	          2.56926157	          0.88923768	         32.54758377	          9.78621221	        -22.30086709	        -37.80108021	          8.28944524	        -13.04015433	         10.33825043	
          1.92193251	        -18.63019461	          2.58409411	          0.89207445	         31.31167228	         11.25334040	        -21.81604881	        -38.71836951	          7.54769060	        -11.25309589	         10.34806679	
          1.93337258	        -18.58235733	          2.59867943	          0.89507175	         30.07961279	         12.76250636	        -21.28499957	        -39.48097555	          6.68772290	         -9.36700121	         10.34569000	
          1.94481266	        -18.53436476	          2.61300798	          0.89821318	         28.86832280	         14.30815947	        -20.73476825	        -40.07044430	          5.72829549	         -7.40999363	         10.32968855	
          1.95625273	        -18.48825059	          2.62708127	          0.90147542	         27.68770250	         15.88022491	        -20.18940041	        -40.47318128	          4.72903336	         -5.41058906	         10.29956487	
          1.96769281	        -18.44556090	          2.64091036	          0.90480567	         26.54953619	         17.46848647	        -19.68547759	        -40.67347012	          3.81215736	         -3.39747803	         10.25466586	
          1.97913288	        -18.40719569	          2.65453568	          0.90806730	         25.45417552	         19.05762165	        -19.28898329	        -40.65512597	          3.12510361	         -1.40095461	         10.19672568	
          1.99057296	        -18.37605296	          2.66792952	          0.91104262	         24.46440722	         20.62980812	        -18.74069852	        -40.42127310	          3.02197299	          0.54930083	         10.12036701	
          2.00201303	        -18.34956742	          2.68128087	          0.91327780	         23.43203660	         22.15358858	        -18.10648296	        -40.04109025	          3.13336841	          2.42925731	         10.04243641	
          2.01345310	        -18.32495990	          2.69467651	          0.91470190	         22.27593861	         23.63639441	        -17.58769715	        -39.51881638	          2.91415171	          4.21944646	          9.96922301	
          2.02489318	        -18.30592708	          2.70796626	          0.91565044	         21.13436081	         25.09447832	        -17.05859590	        -38.81209096	          2.65431897	          5.90040647	          9.88449218	
          2.03633325	        -18.29404752	          2.72117576	          0.91618964	         20.00793415	         26.50705682	        -16.58047654	        -37.90800410	          2.68175715	          7.45308316	          9.79154185	
          2.04777333	        -18.28979612	          2.73433776	          0.91622632	         18.88233410	         27.86670939	        -16.16802149	        -36.80432476	          2.90074141	          8.86328726	          9.69353982	
          2.05921340	        -18.29676319	          2.74736144	          0.91572960	         17.85458404	         29.17229456	        -15.53314632	        -35.49273491	          3.70276278	         10.12215635	          9.58023682	
          2.07065348	        -18.31602111	          2.76037191	          0.91445115	         16.77328861	         30.41898287	        -14.78192512	        -34.05745324	          4.71394759	         11.23139793	          9.46623605	
          2.08209355	        -18.34321962	          2.77344933	          0.91233302	         15.56286390	         31.62686509	        -14.13779812	        -32.56859924	          4.98571654	         12.20075865	          9.35699987	
          2.09353363	        -18.37860265	          2.78649388	          0.90983209	         14.37810174	         32.80398209	        -13.44545442	        -30.99168159	          4.85498088	         13.03871671	          9.23884804	
